<?xml version="1.0" standalone="no"?>
<!DOCTYPE svg PUBLIC "-//W3C//DTD SVG 20010904//EN"
 "http://www.w3.org/TR/2001/REC-SVG-20010904/DTD/svg10.dtd">
<svg version="1.0" xmlns="http://www.w3.org/2000/svg"
 width="1024.000000pt" height="1024.000000pt" viewBox="0 0 1024.000000 1024.000000"
 preserveAspectRatio="xMidYMid meet">

<g transform="translate(0.000000,1024.000000) scale(0.100000,-0.100000)"
fill="#000000" stroke="none">
<path d="M5000 8947 c-63 -21 -133 -62 -695 -402 -398 -241 -341 -188 -560
-516 -730 -1091 -974 -1466 -984 -1509 -6 -27 -11 -237 -11 -536 l0 -491 30
-59 c35 -71 146 -189 808 -858 544 -550 458 -488 770 -556 103 -22 223 -49
267 -60 65 -16 185 -41 360 -76 11 -2 31 -6 45 -9 113 -24 273 -46 311 -43 25
3 68 15 95 28 49 24 70 43 564 525 113 110 329 320 482 468 294 285 311 305
329 414 9 56 90 565 109 688 17 108 20 130 24 151 5 23 5 28 35 214 11 69 22
141 25 160 3 19 10 64 16 100 5 36 12 74 14 85 2 11 9 61 16 111 11 80 10 98
-5 150 -27 94 -59 139 -219 304 -83 85 -193 200 -246 255 -112 118 -914 939
-1210 1238 -113 115 -216 214 -230 221 -47 25 -74 25 -140 3z m94 -349 c29
-29 105 -107 167 -173 62 -66 376 -388 698 -715 322 -327 636 -647 697 -710
l110 -115 -54 -50 c-98 -90 -276 -304 -416 -498 -103 -143 -185 -318 -436
-932 -113 -276 -396 -950 -408 -971 -5 -9 -51 16 -169 94 -89 59 -201 132
-249 162 -48 30 -172 109 -275 175 -104 66 -195 125 -204 130 -9 6 -25 44 -36
85 -11 41 -37 143 -59 225 -74 285 -57 255 -343 618 -140 178 -260 332 -267
343 -13 22 -32 -16 330 659 177 328 159 280 139 382 -10 49 -41 207 -68 353
-28 146 -61 314 -74 373 l-24 108 86 53 c344 212 761 454 783 455 9 1 42 -23
72 -51z m-1039 -1033 c24 -104 49 -218 56 -251 l13 -62 -39 -73 c-21 -41 -77
-146 -125 -234 -129 -238 -277 -516 -291 -547 -14 -32 -26 -34 -100 -12 -83
24 -430 134 -467 148 l-33 12 360 542 c364 548 449 678 511 787 l34 59 19 -89
c10 -50 38 -175 62 -280z m-875 -1284 c80 -22 217 -58 305 -82 l160 -43 101
-126 c56 -69 173 -213 260 -320 l159 -195 84 -291 83 -291 -55 -149 c-30 -82
-74 -203 -98 -269 -23 -66 -44 -122 -45 -124 -4 -4 -245 244 -554 569 -113
118 -279 290 -370 383 l-165 168 -5 404 c-3 223 -5 405 -5 405 0 0 65 -18 145
-39z"/>
<path d="M4950 8603 c-160 -91 -760 -450 -773 -462 -4 -5 12 -111 37 -237 25
-126 66 -332 90 -459 l45 -230 -38 -70 c-21 -38 -62 -115 -91 -170 -30 -55
-125 -232 -212 -394 -87 -162 -157 -297 -156 -301 14 -31 353 -448 361 -443 5
3 7 1 4 -4 -4 -6 33 -61 82 -123 89 -112 89 -112 130 -249 22 -75 52 -183 66
-241 15 -58 33 -129 41 -157 l15 -53 167 -106 c240 -152 632 -405 670 -432 17
-13 37 -20 43 -16 8 4 9 3 5 -4 -4 -7 -4 -12 1 -12 9 0 147 324 365 855 184
450 196 477 301 710 101 224 93 209 201 360 131 182 220 290 363 437 l85 87
-183 188 c-101 103 -371 377 -600 608 -228 231 -476 483 -550 560 -327 341
-372 385 -398 385 -15 -1 -46 -12 -71 -27z"/>
<path d="M3896 7781 c-38 -64 -235 -365 -438 -670 -203 -305 -365 -558 -361
-562 4 -4 69 -26 143 -49 74 -23 182 -57 240 -75 58 -18 119 -35 135 -39 l30
-6 105 197 c57 109 162 304 232 433 70 129 128 239 128 245 0 12 -139 638
-143 640 -1 1 -33 -50 -71 -114z"/>
<path d="M3050 5914 l0 -387 168 -174 c92 -96 221 -231 286 -301 213 -226 619
-643 623 -638 2 2 47 120 99 262 l94 258 -82 285 -81 286 -137 170 c-75 94
-142 169 -147 168 -5 -1 -10 4 -10 11 0 8 -50 76 -112 153 -109 135 -114 140
-163 152 -27 6 -55 8 -60 4 -6 -3 -8 -1 -5 4 4 6 -7 13 -27 17 -19 4 -112 28
-207 55 -96 27 -189 52 -206 55 l-33 8 0 -388z"/>
<path d="M4866 3475 c-113 -40 -164 -148 -121 -252 20 -47 41 -71 85 -93 147
-75 320 14 320 165 0 136 -147 229 -284 180z"/>
<path d="M4105 3418 c-3 -7 -4 -407 -3 -888 l3 -875 165 0 165 0 3 888 2 887
-165 0 c-123 0 -167 -3 -170 -12z"/>
<path d="M2750 3385 c0 -3 0 -393 0 -867 l0 -863 172 0 173 0 3 347 2 348 338
2 337 3 0 145 0 145 -337 3 -338 2 0 215 0 215 373 2 372 3 0 150 0 150 -547
3 c-302 1 -548 0 -548 -3z"/>
<path d="M6961 3266 c-9 -11 -11 -63 -9 -180 l3 -165 -110 -3 -110 -3 0 -135
0 -135 110 -3 110 -3 -3 -324 c-3 -365 5 -431 59 -519 35 -59 96 -109 159
-131 46 -16 210 -38 232 -31 7 3 40 7 73 10 134 12 135 13 135 151 0 128 -4
136 -65 126 -22 -3 -71 -4 -108 0 -59 5 -73 11 -99 36 -16 16 -33 47 -38 69
-5 21 -10 168 -10 327 l0 287 139 0 c106 0 141 3 150 14 8 9 11 55 9 137 l-3
124 -147 3 -148 3 0 167 c0 117 -4 172 -12 180 -19 19 -302 17 -317 -2z"/>
<path d="M6008 2940 c-107 -22 -176 -59 -236 -125 l-47 -51 -3 70 c-2 39 -7
75 -11 79 -4 4 -72 6 -152 5 l-144 -3 0 -630 0 -630 165 0 165 0 5 395 c5 383
6 397 28 452 42 104 135 163 252 159 99 -3 170 -57 202 -152 8 -22 14 -175 17
-444 l6 -410 165 0 165 0 2 455 c2 411 1 462 -16 525 -30 118 -73 181 -164
243 -52 36 -118 59 -205 72 -86 12 -90 12 -194 -10z"/>
<path d="M4775 2908 c-3 -7 -4 -292 -3 -633 l3 -620 160 0 160 0 0 630 0 630
-158 3 c-120 2 -159 0 -162 -10z"/>
</g>
</svg>
